<?xml version="1.0" encoding="UTF-8"?>
<svg id="Laag_1" xmlns="http://www.w3.org/2000/svg" version="1.1" viewBox="0 0 405.21 313.69">
  <!-- Generator: Adobe Illustrator 29.0.1, SVG Export Plug-In . SVG Version: 2.1.0 Build 192)  -->
  <g>
    <path d="M286.72,110.26c-5.01-49.05-34.06-88.08-84.9-94.52-58.87-7.46-112.41,39.14-111.98,98.47-16.04,7.05-31.85,16.18-43.66,29.32-48.43,53.88-17.78,140.03,52.11,154.04,65.32,13.1,117.54-22.65,130.72-87.07,1.26-6.18,5.03-19.6-3.92-21.66-6.35-1.46-13.33,4.37-19.79,6.23-11.28,3.25-22.45,3.05-33.87.78-6.43-1.28-19.02-7.44-24.07-6.06-8.07,2.2-8.14,12.89-.89,16.71,10.08,5.31,29.06,9.26,40.4,9.32,7.66.04,15.38-2.21,22.96-2.68-12.89,52.71-57.66,78.33-110.46,66.06-26.9-6.25-47.45-25.56-55.43-52.15-12.42-41.35,9.47-76.14,46.51-93.42,6.79-3.17,18.65-4.47,18.62-13.79-.05-18.87-1.6-26.2,8.09-43.76,35.99-65.24,131.39-55.62,148.88,19.9,1.72,7.41,1.57,17.08,3.38,23.7,2,7.33,12.17,7.34,18.29,9.55,40.48,14.56,67.64,51.09,54.53,95.21-10.02,33.71-47.85,55.99-82.3,51.43-8.07-1.07-21.03-8.84-25.58.92-4.33,9.28,5.31,12.63,12.33,14.59,50.44,14.06,108.63-22.29,115.75-74.58,7.18-52.71-27.12-92.36-75.71-106.52Z" fill="#fff"/>
    <path d="M286.72,110.26c48.59,14.16,82.89,53.81,75.71,106.52-7.12,52.29-65.31,88.64-115.75,74.58-7.02-1.96-16.66-5.31-12.33-14.59,4.55-9.76,17.51-1.99,25.58-.92,34.45,4.56,72.28-17.72,82.3-51.43,13.12-44.12-14.05-80.65-54.53-95.21-6.12-2.2-16.29-2.21-18.29-9.55-1.81-6.62-1.66-16.29-3.38-23.7-17.49-75.52-112.89-85.13-148.88-19.9-9.69,17.56-8.13,24.9-8.09,43.76.02,9.32-11.84,10.62-18.62,13.79-37.04,17.28-58.92,52.06-46.51,93.42,7.98,26.59,28.53,45.9,55.43,52.15,52.8,12.28,97.57-13.35,110.46-66.06-7.59.47-15.3,2.72-22.96,2.68-11.34-.06-30.32-4.01-40.4-9.32-7.25-3.82-7.18-14.51.89-16.71,5.05-1.38,17.65,4.79,24.07,6.06,11.42,2.27,22.6,2.46,33.87-.78,6.45-1.86,13.43-7.69,19.79-6.23,8.95,2.06,5.19,15.48,3.92,21.66-13.18,64.42-65.4,100.17-130.72,87.07C28.4,283.56-2.26,197.41,46.18,143.53c11.81-13.14,27.62-22.26,43.66-29.32-.43-59.33,53.12-105.93,111.98-98.47,50.84,6.44,79.89,45.47,84.9,94.52Z"/>
  </g>
  <g>
    <circle cx="307.14" cy="115.91" r="76.95" fill="#fff"/>
    <path d="M307.14,200.29c-46.53,0-84.39-37.86-84.39-84.39s37.86-84.39,84.39-84.39,84.39,37.86,84.39,84.39-37.86,84.39-84.39,84.39ZM307.14,46.4c-38.33,0-69.51,31.18-69.51,69.51s31.18,69.51,69.51,69.51,69.51-31.18,69.51-69.51-31.18-69.51-69.51-69.51Z"/>
  </g>
  <path d="M317.41,118.98l-2.71,11.42h-19.01c2.47,7.82,7.82,11.73,16.06,11.73,9.03,0,17.48-2.93,25.34-8.78v23.4c-6.52,4.48-14.41,6.71-23.65,6.71-14.93,0-25.97-3.41-33.12-10.22-7.15-6.82-11.52-14.43-13.11-22.83h-11.37l3.03-11.42h6.9c-.08-.63-.13-1.74-.13-3.32,0-1.67.04-2.89.13-3.64h-8.36l2.96-11.42h6.84c5.44-21.49,20.36-32.24,44.79-32.24,7.99,0,16.08,2.13,24.28,6.4l-5.65,22.77c-5.69-5.23-11.63-7.84-17.81-7.84-8.11,0-13.59,3.64-16.43,10.91h22.6l-2.71,11.42h-22.08c-.08.84-.13,2.05-.13,3.64v3.32h23.35Z" fill="#1d1d1b"/>
</svg>