<?xml version="1.0" encoding="UTF-8"?>
<svg id="Laag_1" xmlns="http://www.w3.org/2000/svg" version="1.1" viewBox="0 0 50 50">
  <!-- Generator: Adobe Illustrator 29.0.1, SVG Export Plug-In . SVG Version: 2.1.0 Build 192)  -->
  <g>
    <path d="M26.66,17.3c2.92.37,5.43,1.69,7.25,3.82,1.35,1.58,2.29,3.58,2.75,5.83,1.48.6,2.78,1.44,3.89,2.45L26.43,4.95h0c.52-.3.87-.87.87-1.51,0-.96-.78-1.75-1.75-1.75s-1.75.78-1.75,1.75c0,.65.35,1.21.87,1.51h0s-6.33,10.97-6.33,10.97l2.04,2.31c1.5-.66,3.13-1.02,4.78-1.02.49,0,.99.03,1.49.09Z" fill="#fff"/>
    <path d="M13.32,27.57c.33-2.55,1.49-4.92,3.35-6.79.15-.15.31-.28.46-.42l-.9-.75-9.41-7.8c.33-.32.53-.76.53-1.25,0-.96-.78-1.75-1.75-1.75s-1.75.78-1.75,1.75.78,1.75,1.75,1.75c.19,0,.37-.03.54-.09l1.93,19.35h.63c.29-.43.61-.84.97-1.24.96-1.07,2.14-1.96,3.66-2.76Z" fill="#fff"/>
    <path d="M45.52,8.81c-.96,0-1.75.78-1.75,1.75,0,.49.2.93.53,1.25l-7.03,5.83,5.78,13.94,1.93-19.35c.17.06.35.09.54.09.96,0,1.75-.78,1.75-1.75s-.78-1.75-1.75-1.75Z" fill="#fff"/>
  </g>
  <path d="M18.95,47.37c-.84,0-1.72-.09-2.59-.27-3.35-.67-6-3.03-7.09-6.32-1.07-3.22-.37-6.62,1.87-9.12.98-1.09,2.28-1.98,4.08-2.8.05-2.5,1.06-4.87,2.86-6.68,1.88-1.89,4.46-2.98,7.09-2.98.41,0,.83.03,1.24.08,2.42.31,4.48,1.39,5.98,3.14,1.34,1.57,2.2,3.65,2.49,6.01,2.34.73,4.27,2.04,5.58,3.79,1.46,1.93,2.04,4.28,1.7,6.79-.29,2.14-1.45,4.12-3.26,5.59-1.76,1.42-3.92,2.21-6.08,2.21-.78,0-1.54-.1-2.27-.31-.63-.18-1.25-.41-1.49-.94-.14-.31-.13-.65.05-1.02.15-.32.47-.7,1.14-.7.37,0,.78.12,1.13.23.23.07.44.13.61.15.27.04.54.05.81.05,2.98,0,5.83-2.02,6.63-4.69.91-3.07-.27-6.93-4.97-8.63-.13-.05-.29-.08-.45-.12-.57-.13-1.35-.31-1.55-1.07-.1-.36-.14-.8-.18-1.22-.04-.37-.07-.75-.15-1.06-.42-1.79-1.34-3.28-2.67-4.3-1.22-.94-2.75-1.45-4.32-1.45-2.72,0-5.16,1.48-6.52,3.95-.76,1.37-.75,1.99-.73,3.35,0,.2,0,.42,0,.65,0,.98-.93,1.3-1.55,1.52-.17.06-.34.12-.47.18-3.67,1.71-5.29,4.96-4.24,8.47.72,2.39,2.59,4.16,5.01,4.72.8.19,1.59.28,2.35.28,3.69,0,6.49-2.13,7.59-5.74-.11.02-.22.04-.34.05-.42.07-.85.14-1.29.14h-.02c-1.11,0-3.01-.39-4.06-.94-.5-.26-.78-.78-.72-1.33.05-.5.39-.89.89-1.03.08-.02.17-.03.27-.03.4,0,.93.19,1.45.37.3.1.58.2.77.24.52.1,1,.15,1.46.15.56,0,1.08-.07,1.59-.22.18-.05.38-.15.59-.25.39-.19.78-.38,1.22-.38.1,0,.2.01.29.03,1.18.27.85,1.76.72,2.4-.01.06-.02.11-.03.15-.55,2.69-1.81,4.95-3.65,6.52-1.84,1.57-4.18,2.4-6.76,2.4h0Z" fill="#fff"/>
</svg>