<?xml version="1.0" encoding="UTF-8"?>
<svg id="Laag_1" xmlns="http://www.w3.org/2000/svg" version="1.1" viewBox="0 0 411.02 411.02">
  <!-- Generator: Adobe Illustrator 29.0.1, SVG Export Plug-In . SVG Version: 2.1.0 Build 192)  -->
  <rect y="0" width="411.02" height="411.02" rx="14.17" ry="14.17" style="fill: #fff;"/>
  <g>
    <path d="M289.63,158.93c-5.01-49.05-34.06-88.08-84.9-94.52-58.87-7.46-112.41,39.14-111.98,98.47-16.04,7.05-31.85,16.18-43.66,29.32C.66,246.08,31.31,332.23,101.2,346.24c65.32,13.1,117.54-22.65,130.72-87.07,1.26-6.18,5.03-19.6-3.92-21.66-6.35-1.46-13.33,4.37-19.79,6.23-11.28,3.25-22.45,3.05-33.87.78-6.43-1.28-19.02-7.44-24.07-6.06-8.07,2.2-8.14,12.89-.89,16.71,10.08,5.31,29.06,9.26,40.4,9.32,7.66.04,15.38-2.21,22.96-2.68-12.89,52.71-57.66,78.33-110.46,66.06-26.9-6.25-47.45-25.56-55.43-52.15-12.42-41.35,9.47-76.14,46.51-93.42,6.79-3.17,18.65-4.47,18.62-13.79-.05-18.87-1.6-26.2,8.09-43.76,35.99-65.24,131.39-55.62,148.88,19.9,1.72,7.41,1.57,17.08,3.38,23.7,2,7.33,12.17,7.34,18.29,9.55,40.48,14.56,67.64,51.09,54.53,95.21-10.02,33.71-47.85,55.99-82.3,51.43-8.07-1.07-21.03-8.84-25.58.92-4.33,9.28,5.31,12.63,12.33,14.59,50.44,14.06,108.63-22.29,115.75-74.58,7.18-52.71-27.12-92.36-75.71-106.52v-.02h-.01Z"/>
    <path d="M127.41,353.15c-8.79,0-17.9-.93-27.06-2.77-34.94-6.99-62.59-31.64-73.97-65.92-11.14-33.55-3.83-69.11,19.55-95.11,10.22-11.37,23.79-20.7,42.59-29.24.52-26.12,11.06-50.77,29.84-69.69,19.59-19.74,46.55-31.06,73.95-31.06,4.31,0,8.67.28,12.96.82,25.23,3.2,46.79,14.52,62.34,32.74,14.01,16.41,22.95,38.06,25.94,62.74,24.43,7.65,44.53,21.27,58.25,39.51,15.18,20.17,21.32,44.67,17.76,70.85-3.03,22.28-15.09,42.97-33.96,58.27-18.32,14.85-40.86,23.03-63.47,23.03-8.1,0-16.06-1.08-23.67-3.2-6.56-1.83-12.99-4.29-15.53-9.82-1.48-3.21-1.31-6.8.49-10.66,1.56-3.34,4.88-7.32,11.85-7.32,3.91,0,8.1,1.26,11.8,2.37,2.36.71,4.6,1.38,6.34,1.61,2.78.37,5.64.55,8.5.55,31.13,0,60.86-21.06,69.17-48.98,9.54-32.08-2.81-72.34-51.89-90-1.31-.47-2.98-.85-4.74-1.26-5.93-1.36-14.05-3.23-16.21-11.17-1.04-3.78-1.47-8.34-1.9-12.74-.37-3.85-.76-7.82-1.52-11.11-4.33-18.68-13.96-34.2-27.87-44.88-12.71-9.76-28.73-15.14-45.12-15.14-28.36,0-53.79,15.41-68.03,41.21-7.9,14.32-7.82,20.77-7.62,34.91.03,2.1.06,4.35.06,6.78.02,10.21-9.74,13.58-16.21,15.81-1.8.62-3.51,1.21-4.87,1.84-38.28,17.86-55.23,51.71-44.24,88.35,7.49,24.95,27.05,43.36,52.32,49.23,8.33,1.94,16.59,2.92,24.54,2.92,38.54,0,67.76-22.26,79.2-59.91-1.16.17-2.33.37-3.53.56-4.36.71-8.87,1.44-13.47,1.45h-.23c-11.58-.06-31.36-4.02-42.36-9.81-5.18-2.73-8.12-8.17-7.5-13.86.57-5.21,4.12-9.31,9.25-10.71.86-.24,1.79-.35,2.84-.35,4.2,0,9.75,1.94,15.11,3.82,3.12,1.09,6.06,2.12,8.06,2.52,5.42,1.08,10.41,1.6,15.25,1.6,5.8,0,11.24-.75,16.62-2.3,1.88-.54,3.96-1.56,6.17-2.63,4.02-1.96,8.18-3.99,12.69-3.99,1.05,0,2.08.11,3.06.34,12.31,2.83,8.92,18.4,7.48,25.05-.13.58-.24,1.12-.34,1.61-5.75,28.11-18.93,51.65-38.12,68.07-19.17,16.41-43.56,25.08-70.53,25.08h-.02Z"/>
    <path d="M289.63,158.93c48.59,14.16,82.89,53.81,75.71,106.52-7.12,52.29-65.31,88.64-115.75,74.58-7.02-1.96-16.66-5.31-12.33-14.59,4.55-9.76,17.51-1.99,25.58-.92,34.45,4.56,72.28-17.72,82.3-51.43,13.12-44.12-14.05-80.65-54.53-95.21-6.12-2.2-16.29-2.21-18.29-9.55-1.81-6.62-1.66-16.29-3.38-23.7-17.49-75.52-112.89-85.13-148.88-19.9-9.69,17.56-8.13,24.9-8.09,43.76.02,9.32-11.84,10.62-18.62,13.79-37.04,17.28-58.92,52.06-46.51,93.42,7.98,26.59,28.53,45.9,55.43,52.15,52.8,12.28,97.57-13.35,110.46-66.06-7.59.47-15.3,2.72-22.96,2.68-11.34-.06-30.32-4.01-40.4-9.32-7.25-3.82-7.18-14.51.89-16.71,5.05-1.38,17.65,4.79,24.07,6.06,11.42,2.27,22.6,2.46,33.87-.78,6.45-1.86,13.43-7.69,19.79-6.23,8.95,2.06,5.19,15.48,3.92,21.66-13.18,64.42-65.4,100.17-130.72,87.07C31.31,332.23.65,246.08,49.09,192.2c11.81-13.14,27.62-22.26,43.66-29.32-.43-59.33,53.12-105.93,111.98-98.47,50.84,6.44,79.89,45.47,84.9,94.52Z"/>
  </g>
  <g>
    <circle cx="310.05" cy="164.58" r="76.95" style="fill: #fff;"/>
    <path d="M310.05,248.96c-46.53,0-84.39-37.86-84.39-84.39s37.86-84.39,84.39-84.39,84.39,37.86,84.39,84.39-37.86,84.39-84.39,84.39ZM310.05,95.07c-38.33,0-69.51,31.18-69.51,69.51s31.18,69.51,69.51,69.51,69.51-31.18,69.51-69.51-31.18-69.51-69.51-69.51h0Z" style="fill: #fff;"/>
  </g>
  <path d="M313.71,168.59l-3.55,14.95h-24.89c3.23,10.24,10.24,15.36,21.03,15.36,11.82,0,22.89-3.84,33.18-11.5v30.64c-8.54,5.87-18.87,8.79-30.96,8.79-19.55,0-34-4.46-43.36-13.38-9.36-8.93-15.08-18.89-17.16-29.89h-14.89l3.97-14.95h9.03c-.1-.82-.17-2.28-.17-4.35,0-2.19.05-3.78.17-4.77h-10.95l3.88-14.95h8.96c7.12-28.14,26.66-42.21,58.64-42.21,10.46,0,21.05,2.79,31.79,8.38l-7.4,29.81c-7.45-6.85-15.23-10.26-23.32-10.26-10.62,0-17.79,4.77-21.51,14.28h29.59l-3.55,14.95h-28.91c-.1,1.1-.17,2.68-.17,4.77v4.35h30.57-.01v-.02Z"/>
</svg>